# xmcd CD database file
#
# Track frame offsets:
#	150
#	19274
#	36590
#	53775
#	73072
#	87714
#	102122
#	122350
#	143534
#	158095
#	175881
#	196201
#	210179
#
# Disc length: 3003 seconds
#
# Revision: 0
# Processed by: cddbd v1.5.2PL0 Copyright (c) Steve Scherf et al.
# Submitted via: CDex 1.70beta2
#
DISCID=ad0bb90d
DTITLE=Imany - The Shape Of a Broken Heart
DYEAR=2014
DGENRE=Blues
TTITLE0=Slow Down
TTITLE1=You Will Never Know
TTITLE2=Kisses In The Dark
TTITLE3=Where Have You Been
TTITLE4=Grey Monday
TTITLE5=Please And Change
TTITLE6=Seat With Me
TTITLE7=Shape Of a Broken Heart
TTITLE8=Pray For Help
TTITLE9=I've Gotta Go
TTITLE10=I Lost My Keys
TTITLE11=Take Care
TTITLE12=You Will Never Know
EXTD=YEAR: 2014
EXTT0=
EXTT1=
EXTT2=
EXTT3=
EXTT4=
EXTT5=
EXTT6=
EXTT7=
EXTT8=
EXTT9=
EXTT10=
EXTT11=
EXTT12=
PLAYORDER=
